<svg width="116" height="53" viewBox="0 0 116 53" fill="none" xmlns="http://www.w3.org/2000/svg">
<path d="M21.6795 52.045L25.9967 39.9382H19.3333L20.9287 36.0903H54.3397L52.8381 39.9382H46.6439L42.2329 52.045H37.9158L42.2329 39.9382H30.3138L25.9967 52.045H21.6795Z" fill="#205B7F"/>
<path d="M60.5339 36.0903H56.2167L53.4951 44.5369C53.7477 45.6137 54.0947 46.1106 55.6536 46.5078H64.8511L63.2556 48.3848H53.2135L51.7119 52.2327H65.6957C66.9228 51.6936 67.4428 51.262 67.9481 50.168L72.8284 36.0903H68.3235C68.3235 36.0903 66.2588 42.4722 65.6957 42.6599C65.1326 42.8476 58.898 43.0631 58.563 42.4722C58.2281 41.8812 60.5339 36.0903 60.5339 36.0903Z" fill="#205B7F"/>
<path d="M106.521 40.032L107.741 36.1841L93.2879 36.3718C91.6558 37.5896 90.4724 43.0352 90.3786 43.6922C90.2847 44.3492 90.8209 45.955 92.1617 46.0385H100.984C101.503 47.2438 101.254 47.742 100.045 48.3848H90.097L88.6892 52.045L103.424 52.1388C105.243 49.1553 106.333 45.3815 106.239 44.2553C106.146 43.1291 105.816 42.6109 104.55 42.2844H95.8219C95.1613 41.2092 95.2692 40.7061 96.385 40.032H106.521Z" fill="#205B7F"/>
<path d="M116 36.1841H111.401L105.582 52.1388H110.181L116 36.1841Z" fill="#205B7F"/>
<path fill-rule="evenodd" clip-rule="evenodd" d="M75.2685 36.5595C74.4239 37.3103 70.1724 49.0816 70.4821 50.168C70.5002 50.2313 70.5173 50.2922 70.5338 50.3508C70.8003 51.2982 70.8997 51.6515 71.9837 51.9511C73.1349 52.2693 85.8737 52.1388 86.1553 52.045C86.4368 51.9512 87.6569 48.6346 87.6569 48.3848C87.6569 48.135 75.5501 48.5725 75.5501 48.5725C75.0193 47.4062 75.2266 46.892 75.8316 46.0385H88.3138C89.7065 43.1972 90.2136 41.6689 90.8478 38.9997C90.9924 37.5924 90.6651 36.9508 89.2523 36.0903C89.2523 36.0903 76.1132 35.8087 75.2685 36.5595ZM77.1456 42.2845C77.2154 41.1049 77.488 40.6102 78.2718 39.9382H85.3106C86.1345 40.7965 86.0987 41.315 85.3106 42.2845H77.1456Z" fill="#205B7F"/>
<path d="M18.1968 2.25243L16.7891 0L12.4719 3.00324L13.9735 5.16181L18.1968 2.25243Z" fill="#205B7F"/>
<path d="M12.2842 6.10032L10.9703 4.12945L6.74698 7.97735L7.50809 10.4175L12.2842 6.10032Z" fill="#205B7F"/>
<path d="M4.77611 10.1359C4.98959 11.098 5.12981 11.6361 5.52692 12.5761C2.28562 15.7791 1.20027 18.335 0.0835507 23.7443C-0.258824 18.4108 0.291777 15.4266 4.77611 10.1359Z" fill="#205B7F"/>
<path d="M16.8829 10.699L14.7243 7.8835L8.53017 13.1392C9.02327 14.3814 9.37993 15.1241 10.1359 16.5178L16.8829 10.699Z" fill="#205B7F"/>
<path d="M7.97735 18.6764C7.26616 17.3628 6.90643 16.6095 6.38188 15.2039C0.582293 22.0801 -0.501487 25.8061 2.5237 31.8155C3.28363 25.1595 4.63636 22.451 7.97735 18.6764Z" fill="#205B7F"/>
<path d="M26.8312 13.3269L24.8603 9.85437L30.3975 6.66343L32.2745 10.2298L26.8312 13.3269Z" fill="#205B7F"/>
<path d="M25.5172 13.89L23.4525 10.4175L18.0092 13.89L20.2616 17.5502L25.5172 13.89Z" fill="#205B7F"/>
<path d="M18.5723 18.5825L16.3198 15.0162L11.7314 19.0518C12.5571 20.3476 13.1261 21.1127 14.2654 22.5243L18.5723 18.5825Z" fill="#205B7F"/>
<path d="M9.4687 21.3042L12.1068 24.9644C7.9395 29.5343 6.74089 32.4127 7.87323 39.0421C2.67643 34.1212 2.5682 30.3984 9.4687 21.3042Z" fill="#205B7F"/>
<path d="M16.3409 24.8937L16.3198 24.8706L23.171 19.0518L25.8926 22.712L19.4169 28.0615C18.2652 27.006 17.5696 26.2424 16.3409 24.8937Z" fill="#205B7F"/>
<path d="M17.1645 30.5955C15.8058 29.3177 15.1192 28.5734 13.9736 27.2168C7.49012 36.3019 7.43293 40.0984 15.2875 44.0162C11.9398 39.5849 12.4605 36.6298 17.1645 30.5955Z" fill="#205B7F"/>
<path d="M30.8718 23.5902H29.8627V22.9955H32.6107V23.5902H31.6016V26.1489H30.8718V23.5902ZM34.4865 26.203C34.1592 26.203 33.8634 26.1324 33.5991 25.9913C33.3378 25.8501 33.1321 25.6564 32.9819 25.4101C32.8347 25.1609 32.7612 24.8816 32.7612 24.5722C32.7612 24.2629 32.8347 23.9851 32.9819 23.7388C33.1321 23.4896 33.3378 23.2943 33.5991 23.1532C33.8634 23.012 34.1592 22.9415 34.4865 22.9415C34.8139 22.9415 35.1082 23.012 35.3695 23.1532C35.6308 23.2943 35.8365 23.4896 35.9866 23.7388C36.1368 23.9851 36.2119 24.2629 36.2119 24.5722C36.2119 24.8816 36.1368 25.1609 35.9866 25.4101C35.8365 25.6564 35.6308 25.8501 35.3695 25.9913C35.1082 26.1324 34.8139 26.203 34.4865 26.203ZM34.4865 25.5813C34.6727 25.5813 34.8409 25.5393 34.9911 25.4552C35.1412 25.3681 35.2584 25.248 35.3424 25.0948C35.4295 24.9416 35.4731 24.7674 35.4731 24.5722C35.4731 24.377 35.4295 24.2028 35.3424 24.0497C35.2584 23.8965 35.1412 23.7779 34.9911 23.6938C34.8409 23.6067 34.6727 23.5631 34.4865 23.5631C34.3003 23.5631 34.1321 23.6067 33.982 23.6938C33.8318 23.7779 33.7132 23.8965 33.6261 24.0497C33.542 24.2028 33.5 24.377 33.5 24.5722C33.5 24.7674 33.542 24.9416 33.6261 25.0948C33.7132 25.248 33.8318 25.3681 33.982 25.4552C34.1321 25.5393 34.3003 25.5813 34.4865 25.5813ZM37.7965 26.203C37.5472 26.203 37.3054 26.1699 37.0712 26.1039C36.8399 26.0348 36.6537 25.9462 36.5126 25.8381L36.7603 25.2885C36.8955 25.3876 37.0562 25.4672 37.2424 25.5273C37.4286 25.5873 37.6148 25.6174 37.801 25.6174C38.0082 25.6174 38.1614 25.5873 38.2605 25.5273C38.3596 25.4642 38.4091 25.3816 38.4091 25.2795C38.4091 25.2044 38.3791 25.1428 38.319 25.0948C38.262 25.0437 38.1869 25.0032 38.0938 24.9732C38.0037 24.9431 37.8806 24.9101 37.7244 24.8741C37.4841 24.817 37.2874 24.7599 37.1343 24.7029C36.9811 24.6458 36.8489 24.5542 36.7378 24.4281C36.6297 24.3019 36.5756 24.1338 36.5756 23.9235C36.5756 23.7403 36.6252 23.5752 36.7243 23.428C36.8234 23.2778 36.9721 23.1592 37.1703 23.0721C37.3715 22.985 37.6163 22.9415 37.9046 22.9415C38.1058 22.9415 38.3025 22.9655 38.4947 23.0135C38.6869 23.0616 38.8551 23.1307 38.9993 23.2208L38.774 23.7749C38.4827 23.6097 38.1914 23.5271 37.9001 23.5271C37.6959 23.5271 37.5442 23.5601 37.4451 23.6262C37.349 23.6923 37.3009 23.7794 37.3009 23.8875C37.3009 23.9956 37.3565 24.0767 37.4676 24.1308C37.5817 24.1818 37.7544 24.2329 37.9857 24.2839C38.2259 24.341 38.4226 24.398 38.5758 24.4551C38.729 24.5122 38.8596 24.6023 38.9677 24.7254C39.0788 24.8485 39.1344 25.0152 39.1344 25.2254C39.1344 25.4056 39.0834 25.5708 38.9812 25.721C38.8821 25.8681 38.732 25.9852 38.5308 26.0723C38.3295 26.1594 38.0848 26.203 37.7965 26.203ZM42.5252 22.9955V26.1489H41.7954V24.856H40.3629V26.1489H39.6331V22.9955H40.3629V24.2389H41.7954V22.9955H42.5252ZM44.42 24.9101L43.9966 25.3516V26.1489H43.2713V22.9955H43.9966V24.4686L45.3931 22.9955H46.2039L44.8975 24.401L46.2805 26.1489H45.4291L44.42 24.9101ZM49.0475 25.5633V26.1489H46.6059V22.9955H48.989V23.5812H47.3312V24.2659H48.7953V24.8335H47.3312V25.5633H49.0475ZM52.5203 22.9955V26.1489H51.9212L50.349 24.2344V26.1489H49.6282V22.9955H50.2319L51.7996 24.9101V22.9955H52.5203ZM53.9196 23.5902H52.9105V22.9955H55.6585V23.5902H54.6494V26.1489H53.9196V23.5902ZM57.9801 23.5902H56.9711V22.9955H59.719V23.5902H58.7099V26.1489H57.9801V23.5902ZM61.5948 26.203C61.2675 26.203 60.9717 26.1324 60.7074 25.9913C60.4461 25.8501 60.2404 25.6564 60.0902 25.4101C59.9431 25.1609 59.8695 24.8816 59.8695 24.5722C59.8695 24.2629 59.9431 23.9851 60.0902 23.7388C60.2404 23.4896 60.4461 23.2943 60.7074 23.1532C60.9717 23.012 61.2675 22.9415 61.5948 22.9415C61.9222 22.9415 62.2165 23.012 62.4778 23.1532C62.7391 23.2943 62.9448 23.4896 63.095 23.7388C63.2451 23.9851 63.3202 24.2629 63.3202 24.5722C63.3202 24.8816 63.2451 25.1609 63.095 25.4101C62.9448 25.6564 62.7391 25.8501 62.4778 25.9913C62.2165 26.1324 61.9222 26.203 61.5948 26.203ZM61.5948 25.5813C61.781 25.5813 61.9492 25.5393 62.0994 25.4552C62.2495 25.3681 62.3667 25.248 62.4508 25.0948C62.5379 24.9416 62.5814 24.7674 62.5814 24.5722C62.5814 24.377 62.5379 24.2028 62.4508 24.0497C62.3667 23.8965 62.2495 23.7779 62.0994 23.6938C61.9492 23.6067 61.781 23.5631 61.5948 23.5631C61.4086 23.5631 61.2405 23.6067 61.0903 23.6938C60.9401 23.7779 60.8215 23.8965 60.7344 24.0497C60.6503 24.2028 60.6083 24.377 60.6083 24.5722C60.6083 24.7674 60.6503 24.9416 60.7344 25.0948C60.8215 25.248 60.9401 25.3681 61.0903 25.4552C61.2405 25.5393 61.4086 25.5813 61.5948 25.5813ZM64.0234 22.7703C64.1495 22.7703 64.2532 22.8108 64.3342 22.8919C64.4153 22.97 64.4559 23.0736 64.4559 23.2028C64.4559 23.2628 64.4484 23.3229 64.4334 23.3829C64.4183 23.443 64.3868 23.5331 64.3388 23.6532L64.0775 24.3019H63.6315L63.8252 23.5902C63.7501 23.5571 63.6916 23.5076 63.6495 23.4415C63.6075 23.3754 63.5864 23.2959 63.5864 23.2028C63.5864 23.0736 63.627 22.97 63.7081 22.8919C63.7922 22.8108 63.8973 22.7703 64.0234 22.7703ZM68.3919 26.4868C68.2897 26.6129 68.1651 26.709 68.018 26.7751C67.8738 26.8412 67.7146 26.8742 67.5404 26.8742C67.3062 26.8742 67.0945 26.8232 66.9053 26.721C66.716 26.6219 66.4998 26.4447 66.2566 26.1895C65.9712 26.1534 65.716 26.0618 65.4907 25.9147C65.2685 25.7675 65.0943 25.5783 64.9682 25.3471C64.845 25.1128 64.7835 24.8545 64.7835 24.5722C64.7835 24.2629 64.857 23.9851 65.0042 23.7388C65.1544 23.4896 65.3601 23.2943 65.6214 23.1532C65.8857 23.012 66.1815 22.9415 66.5088 22.9415C66.8362 22.9415 67.1305 23.012 67.3918 23.1532C67.6531 23.2943 67.8588 23.4896 68.0089 23.7388C68.1591 23.9851 68.2342 24.2629 68.2342 24.5722C68.2342 24.9386 68.1306 25.26 67.9233 25.5363C67.7191 25.8126 67.4473 26.0048 67.108 26.1129C67.1831 26.191 67.2551 26.2465 67.3242 26.2796C67.3963 26.3156 67.4729 26.3336 67.554 26.3336C67.7492 26.3336 67.9203 26.2555 68.0675 26.0994L68.3919 26.4868ZM65.5223 24.5722C65.5223 24.7674 65.5643 24.9416 65.6484 25.0948C65.7355 25.248 65.8541 25.3681 66.0043 25.4552C66.1544 25.5393 66.3226 25.5813 66.5088 25.5813C66.695 25.5813 66.8632 25.5393 67.0134 25.4552C67.1635 25.3681 67.2807 25.248 67.3647 25.0948C67.4518 24.9416 67.4954 24.7674 67.4954 24.5722C67.4954 24.377 67.4518 24.2028 67.3647 24.0497C67.2807 23.8965 67.1635 23.7779 67.0134 23.6938C66.8632 23.6067 66.695 23.5631 66.5088 23.5631C66.3226 23.5631 66.1544 23.6067 66.0043 23.6938C65.8541 23.7779 65.7355 23.8965 65.6484 24.0497C65.5643 24.2028 65.5223 24.377 65.5223 24.5722ZM68.7826 22.9955H69.5124V26.1489H68.7826V22.9955ZM73.1304 26.1489L73.1259 24.2569L72.1979 25.8156H71.869L70.9455 24.2974V26.1489H70.2608V22.9955H70.8645L72.0447 24.9551L73.207 22.9955H73.8061L73.8151 26.1489H73.1304ZM76.64 25.4732H75.176L74.8967 26.1489H74.1488L75.5544 22.9955H76.2751L77.6852 26.1489H76.9193L76.64 25.4732ZM76.4103 24.9191L75.9102 23.7118L75.4102 24.9191H76.4103ZM79.4775 26.203C79.1561 26.203 78.8648 26.1339 78.6035 25.9958C78.3452 25.8546 78.141 25.6609 77.9909 25.4146C77.8437 25.1654 77.7701 24.8846 77.7701 24.5722C77.7701 24.2599 77.8437 23.9806 77.9909 23.7343C78.141 23.4851 78.3452 23.2913 78.6035 23.1532C78.8648 23.012 79.1576 22.9415 79.482 22.9415C79.7553 22.9415 80.0015 22.9895 80.2208 23.0856C80.443 23.1817 80.6292 23.3199 80.7794 23.5001L80.3109 23.9325C80.0976 23.6863 79.8333 23.5631 79.518 23.5631C79.3228 23.5631 79.1486 23.6067 78.9954 23.6938C78.8423 23.7779 78.7221 23.8965 78.635 24.0497C78.551 24.2028 78.5089 24.377 78.5089 24.5722C78.5089 24.7674 78.551 24.9416 78.635 25.0948C78.7221 25.248 78.8423 25.3681 78.9954 25.4552C79.1486 25.5393 79.3228 25.5813 79.518 25.5813C79.8333 25.5813 80.0976 25.4567 80.3109 25.2074L80.7794 25.6399C80.6292 25.8231 80.443 25.9627 80.2208 26.0588C79.9985 26.1549 79.7507 26.203 79.4775 26.203ZM84.1643 22.9955V26.1489H83.4345V24.856H82.002V26.1489H81.2722V22.9955H82.002V24.2389H83.4345V22.9955H84.1643ZM84.9104 22.9955H85.6402V26.1489H84.9104V22.9955ZM86.3885 22.9955H87.1183V25.5543H88.6995V26.1489H86.3885V22.9955ZM89.1073 22.9955H89.8371V26.1489H89.1073V22.9955ZM91.7342 24.9101L91.3107 25.3516V26.1489H90.5854V22.9955H91.3107V24.4686L92.7072 22.9955H93.5181L92.2117 24.401L93.5947 26.1489H92.7433L91.7342 24.9101ZM98.2276 22.9955L96.8627 26.1489H96.1419L94.7814 22.9955H95.5698L96.5293 25.248L97.5024 22.9955H98.2276ZM100.462 25.4732H98.998L98.7187 26.1489H97.9709L99.3764 22.9955H100.097L101.507 26.1489H100.741L100.462 25.4732ZM100.232 24.9191L99.7323 23.7118L99.2323 24.9191H100.232ZM31.7323 30.0317V31.1489H31.0025V30.0227L29.7817 27.9955H30.5565L31.3989 29.3965L32.2413 27.9955H32.9576L31.7323 30.0317ZM35.6738 30.5633V31.1489H33.2321V27.9955H35.6152V28.5812H33.9574V29.2659H35.4215V29.8335H33.9574V30.5633H35.6738ZM39.1465 27.9955V31.1489H38.5474L36.9752 29.2344V31.1489H36.2544V27.9955H36.8581L38.4258 29.9101V27.9955H39.1465ZM42.0234 29.5227H42.6901V30.8021C42.519 30.9312 42.3207 31.0303 42.0955 31.0994C41.8703 31.1684 41.6435 31.203 41.4153 31.203C41.0879 31.203 40.7936 31.1339 40.5323 30.9958C40.271 30.8546 40.0653 30.6609 39.9152 30.4146C39.768 30.1654 39.6944 29.8846 39.6944 29.5722C39.6944 29.2599 39.768 28.9806 39.9152 28.7343C40.0653 28.4851 40.2725 28.2913 40.5368 28.1532C40.8011 28.012 41.0984 27.9415 41.4288 27.9415C41.7051 27.9415 41.9559 27.988 42.1811 28.0811C42.4063 28.1742 42.5955 28.3094 42.7487 28.4866L42.2802 28.919C42.055 28.6818 41.7832 28.5631 41.4648 28.5631C41.2636 28.5631 41.0849 28.6052 40.9287 28.6893C40.7726 28.7734 40.6509 28.892 40.5639 29.0452C40.4768 29.1983 40.4332 29.374 40.4332 29.5722C40.4332 29.7674 40.4768 29.9416 40.5639 30.0948C40.6509 30.248 40.7711 30.3681 40.9242 30.4552C41.0804 30.5393 41.2576 30.5813 41.4558 30.5813C41.666 30.5813 41.8552 30.5363 42.0234 30.4462V29.5227ZM43.3681 27.9955H44.0978V31.1489H43.3681V27.9955ZM44.8462 27.9955H45.576V30.5543H47.1572V31.1489H44.8462V27.9955ZM49.8769 31.203C49.6276 31.203 49.3858 31.1699 49.1516 31.1039C48.9203 31.0348 48.7341 30.9462 48.593 30.8381L48.8407 30.2885C48.9759 30.3876 49.1366 30.4672 49.3228 30.5273C49.509 30.5873 49.6952 30.6174 49.8814 30.6174C50.0886 30.6174 50.2418 30.5873 50.3409 30.5273C50.44 30.4642 50.4895 30.3816 50.4895 30.2795C50.4895 30.2044 50.4595 30.1428 50.3994 30.0948C50.3424 30.0437 50.2673 30.0032 50.1742 29.9732C50.0841 29.9431 49.961 29.9101 49.8048 29.8741C49.5645 29.817 49.3678 29.7599 49.2147 29.7029C49.0615 29.6458 48.9293 29.5542 48.8182 29.4281C48.7101 29.3019 48.6561 29.1338 48.6561 28.9235C48.6561 28.7403 48.7056 28.5752 48.8047 28.428C48.9038 28.2778 49.0525 28.1592 49.2507 28.0721C49.4519 27.985 49.6967 27.9415 49.985 27.9415C50.1862 27.9415 50.3829 27.9655 50.5751 28.0135C50.7673 28.0616 50.9355 28.1307 51.0797 28.2208L50.8544 28.7749C50.5631 28.6097 50.2718 28.5271 49.9805 28.5271C49.7763 28.5271 49.6246 28.5601 49.5255 28.6262C49.4294 28.6923 49.3813 28.7794 49.3813 28.8875C49.3813 28.9956 49.4369 29.0767 49.548 29.1308C49.6621 29.1818 49.8348 29.2329 50.0661 29.2839C50.3063 29.341 50.503 29.398 50.6562 29.4551C50.8094 29.5122 50.94 29.6023 51.0481 29.7254C51.1592 29.8485 51.2148 30.0152 51.2148 30.2254C51.2148 30.4056 51.1638 30.5708 51.0616 30.721C50.9625 30.8681 50.8124 30.9852 50.6112 31.0723C50.4099 31.1594 50.1652 31.203 49.8769 31.203ZM53.7902 30.4732H52.3261L52.0468 31.1489H51.299L52.7045 27.9955H53.4253L54.8353 31.1489H54.0695L53.7902 30.4732ZM53.5605 29.9191L53.0604 28.7118L52.5604 29.9191H53.5605ZM58.0546 27.9955V31.1489H57.4555L55.8833 29.2344V31.1489H55.1625V27.9955H55.7662L57.3338 29.9101V27.9955H58.0546ZM60.3278 31.203C60.0005 31.203 59.7047 31.1324 59.4404 30.9913C59.1791 30.8501 58.9734 30.6564 58.8232 30.4101C58.6761 30.1609 58.6025 29.8816 58.6025 29.5722C58.6025 29.2629 58.6761 28.9851 58.8232 28.7388C58.9734 28.4896 59.1791 28.2943 59.4404 28.1532C59.7047 28.012 60.0005 27.9415 60.3278 27.9415C60.6552 27.9415 60.9495 28.012 61.2108 28.1532C61.4721 28.2943 61.6778 28.4896 61.828 28.7388C61.9781 28.9851 62.0532 29.2629 62.0532 29.5722C62.0532 29.8816 61.9781 30.1609 61.828 30.4101C61.6778 30.6564 61.4721 30.8501 61.2108 30.9913C60.9495 31.1324 60.6552 31.203 60.3278 31.203ZM60.3278 30.5813C60.514 30.5813 60.6822 30.5393 60.8324 30.4552C60.9826 30.3681 61.0997 30.248 61.1838 30.0948C61.2709 29.9416 61.3144 29.7674 61.3144 29.5722C61.3144 29.377 61.2709 29.2028 61.1838 29.0497C61.0997 28.8965 60.9826 28.7779 60.8324 28.6938C60.6822 28.6067 60.514 28.5631 60.3278 28.5631C60.1416 28.5631 59.9735 28.6067 59.8233 28.6938C59.6731 28.7779 59.5545 28.8965 59.4674 29.0497C59.3833 29.2028 59.3413 29.377 59.3413 29.5722C59.3413 29.7674 59.3833 29.9416 59.4674 30.0948C59.5545 30.248 59.6731 30.3681 59.8233 30.4552C59.9735 30.5393 60.1416 30.5813 60.3278 30.5813ZM64.6344 30.4732H63.1703L62.891 31.1489H62.1432L63.5487 27.9955H64.2695L65.6795 31.1489H64.9137L64.6344 30.4732ZM64.4047 29.9191L63.9046 28.7118L63.4046 29.9191H64.4047ZM66.5015 28.5902H65.4925V27.9955H68.2404V28.5902H67.2313V31.1489H66.5015V28.5902ZM69.9089 27.9955H70.6387V31.1489H69.9089V27.9955ZM74.2791 27.9955V31.1489H73.68L72.1078 29.2344V31.1489H71.387V27.9955H71.9907L73.5584 29.9101V27.9955H74.2791ZM76.0613 31.203C75.8121 31.203 75.5703 31.1699 75.3361 31.1039C75.1048 31.0348 74.9186 30.9462 74.7774 30.8381L75.0252 30.2885C75.1604 30.3876 75.321 30.4672 75.5072 30.5273C75.6934 30.5873 75.8796 30.6174 76.0658 30.6174C76.2731 30.6174 76.4262 30.5873 76.5253 30.5273C76.6244 30.4642 76.674 30.3816 76.674 30.2795C76.674 30.2044 76.644 30.1428 76.5839 30.0948C76.5268 30.0437 76.4518 30.0032 76.3587 29.9732C76.2686 29.9431 76.1454 29.9101 75.9893 29.8741C75.749 29.817 75.5523 29.7599 75.3991 29.7029C75.246 29.6458 75.1138 29.5542 75.0027 29.4281C74.8946 29.3019 74.8405 29.1338 74.8405 28.9235C74.8405 28.7403 74.8901 28.5752 74.9892 28.428C75.0883 28.2778 75.2369 28.1592 75.4352 28.0721C75.6364 27.985 75.8811 27.9415 76.1694 27.9415C76.3707 27.9415 76.5674 27.9655 76.7596 28.0135C76.9518 28.0616 77.12 28.1307 77.2641 28.2208L77.0389 28.7749C76.7476 28.6097 76.4563 28.5271 76.1649 28.5271C75.9607 28.5271 75.8091 28.5601 75.71 28.6262C75.6139 28.6923 75.5658 28.7794 75.5658 28.8875C75.5658 28.9956 75.6214 29.0767 75.7325 29.1308C75.8466 29.1818 76.0193 29.2329 76.2505 29.2839C76.4908 29.341 76.6875 29.398 76.8407 29.4551C76.9938 29.5122 77.1245 29.6023 77.2326 29.7254C77.3437 29.8485 77.3993 30.0152 77.3993 30.2254C77.3993 30.4056 77.3482 30.5708 77.2461 30.721C77.147 30.8681 76.9968 30.9852 76.7956 31.0723C76.5944 31.1594 76.3496 31.203 76.0613 31.203ZM78.5072 28.5902H77.4981V27.9955H80.246V28.5902H79.2369V31.1489H78.5072V28.5902ZM80.6387 27.9955H81.3685V31.1489H80.6387V27.9955ZM82.77 28.5902H81.761V27.9955H84.5089V28.5902H83.4998V31.1489H82.77V28.5902ZM86.2498 31.203C85.7993 31.203 85.4479 31.0783 85.1957 30.8291C84.9464 30.5798 84.8218 30.2239 84.8218 29.7614V27.9955H85.5515V29.7344C85.5515 30.299 85.7858 30.5813 86.2543 30.5813C86.4826 30.5813 86.6567 30.5137 86.7769 30.3786C86.897 30.2404 86.9571 30.0257 86.9571 29.7344V27.9955H87.6778V29.7614C87.6778 30.2239 87.5517 30.5798 87.2994 30.8291C87.0502 31.0783 86.7003 31.203 86.2498 31.203ZM88.9994 28.5902H87.9903V27.9955H90.7383V28.5902H89.7292V31.1489H88.9994V28.5902ZM91.131 27.9955H91.8607V31.1489H91.131V27.9955Z" fill="#ACADB1"/>
</svg>
